HIERARCHY
ROOT newVegas:Hips
{
	OFFSET 0.000000 96.479958 0.000000
	CHANNELS 6 Xposition Yposition Zposition Xrotation Yrotation Zrotation
	JOINT newVegas:Pelvis
	{
		OFFSET 0.000000 0.000000 0.000000
		CHANNELS 3 Xrotation Yrotation Zrotation
		JOINT newVegas:LeftUpLeg
		{
			OFFSET 18.735201 -5.666702 -4.541200
			CHANNELS 3 Xrotation Yrotation Zrotation
			JOINT newVegas:LeftLeg
			{
				OFFSET -0.021200 -31.938179 0.493100
				CHANNELS 3 Xrotation Yrotation Zrotation
				JOINT newVegas:LeftFoot
				{
					OFFSET 0.021200 -31.938179 -4.336299
					CHANNELS 3 Xrotation Yrotation Zrotation
					JOINT newVegas:LeftToeBase
					{
						OFFSET 0.943001 -26.722000 15.023500
						CHANNELS 3 Xrotation Yrotation Zrotation
						End Site
						{
							OFFSET 0.000000 30.670183 0.000000
						}
					}
				}
				JOINT newVegas:Left_PantLeg
				{
					OFFSET 0.663870 -9.044666 -1.108900
					CHANNELS 3 Xrotation Yrotation Zrotation
					End Site
					{
						OFFSET 1.415995 20.635357 0.000000
					}
				}
			}
		}
		JOINT newVegas:RightUpLeg
		{
			OFFSET -18.735201 -5.666702 -4.541200
			CHANNELS 3 Xrotation Yrotation Zrotation
			JOINT newVegas:RightLeg
			{
				OFFSET 0.018946 -31.938133 0.493100
				CHANNELS 3 Xrotation Yrotation Zrotation
				JOINT newVegas:RightFoot
				{
					OFFSET -0.018946 -31.938126 -4.336299
					CHANNELS 3 Xrotation Yrotation Zrotation
					JOINT newVegas:RightToeBase
					{
						OFFSET -0.943001 -26.722004 15.023500
						CHANNELS 3 Xrotation Yrotation Zrotation
						End Site
						{
							OFFSET 0.000000 30.670187 0.000000
						}
					}
				}
				JOINT newVegas:Right_PantLeg
				{
					OFFSET -0.661674 -9.044716 -1.108900
					CHANNELS 3 Xrotation Yrotation Zrotation
					End Site
					{
						OFFSET -1.415958 20.635269 0.000000
					}
				}
			}
		}
	}
	JOINT newVegas:Spine
	{
		OFFSET 0.000000 10.199997 -0.299500
		CHANNELS 3 Xrotation Yrotation Zrotation
		JOINT newVegas:Spine1
		{
			OFFSET 0.000000 11.900002 -1.516600
			CHANNELS 3 Xrotation Yrotation Zrotation
			JOINT newVegas:Spine2
			{
				OFFSET 0.000000 13.600006 -2.842500
				CHANNELS 3 Xrotation Yrotation Zrotation
				JOINT newVegas:Neck
				{
					OFFSET 0.000000 9.624100 -2.890100
					CHANNELS 3 Xrotation Yrotation Zrotation
					JOINT newVegas:Head
					{
						OFFSET 0.000000 14.068802 -1.351900
						CHANNELS 3 Xrotation Yrotation Zrotation
						JOINT newVegas:Hair_Back
						{
							OFFSET 0.000000 3.231903 -17.524799
							CHANNELS 3 Xrotation Yrotation Zrotation
							End Site
							{
								OFFSET 0.000000 19.849884 0.000000
							}
						}
						JOINT newVegas:Hair_Front
						{
							OFFSET 0.000000 31.260406 4.573800
							CHANNELS 3 Xrotation Yrotation Zrotation
							JOINT newVegas:Hair_Front1
							{
								OFFSET 0.000000 2.284103 11.993300
								CHANNELS 3 Xrotation Yrotation Zrotation
								JOINT newVegas:Hair_Front2
								{
									OFFSET 0.000000 2.284103 11.993300
									CHANNELS 3 Xrotation Yrotation Zrotation
									End Site
									{
										OFFSET 0.000000 12.208862 0.000000
									}
								}
							}
						}
						JOINT newVegas:Jowel
						{
							OFFSET 0.000000 -7.458206 6.864100
							CHANNELS 3 Xrotation Yrotation Zrotation
							End Site
							{
								OFFSET 0.000000 19.849884 0.000000
							}
						}
					}
				}
				JOINT newVegas:LeftShoulder
				{
					OFFSET 15.263000 10.923401 -0.547700
					CHANNELS 3 Xrotation Yrotation Zrotation
					JOINT newVegas:LeftArm
					{
						OFFSET 25.438599 -2.830597 -13.032500
						CHANNELS 3 Xrotation Yrotation Zrotation
						JOINT newVegas:LeftForeArm
						{
							OFFSET 29.960503 0.000000 0.000000
							CHANNELS 3 Xrotation Yrotation Zrotation
							JOINT newVegas:LeftHand
							{
								OFFSET 27.849251 0.000000 0.000000
								CHANNELS 3 Xrotation Yrotation Zrotation
								JOINT newVegas:LeftHandThumb1
								{
									OFFSET 4.487587 -3.305161 6.305391
									CHANNELS 3 Xrotation Yrotation Zrotation
									JOINT newVegas:LeftHandThumb2
									{
										OFFSET 5.480453 -3.164139 3.164143
										CHANNELS 3 Xrotation Yrotation Zrotation
										JOINT newVegas:LeftHandThumb3
										{
											OFFSET 5.159721 -2.978973 2.978967
											CHANNELS 3 Xrotation Yrotation Zrotation
											End Site
											{
												OFFSET 2.494507 5.926697 1.738678
											}
										}
									}
								}
								JOINT newVegas:LeftHandIndex1
								{
									OFFSET 18.578728 -0.527832 5.208049
									CHANNELS 3 Xrotation Yrotation Zrotation
									JOINT newVegas:LeftHandIndex2
									{
										OFFSET 3.192009 0.000000 0.000000
										CHANNELS 3 Xrotation Yrotation Zrotation
										JOINT newVegas:LeftHandIndex3
										{
											OFFSET 3.835129 0.000000 0.000000
											CHANNELS 3 Xrotation Yrotation Zrotation
											End Site
											{
												OFFSET -0.034599 3.816971 0.371180
											}
										}
									}
								}
								JOINT newVegas:LeftHandMiddle1
								{
									OFFSET 18.476105 0.000000 0.000000
									CHANNELS 3 Xrotation Yrotation Zrotation
									JOINT newVegas:LeftHandMiddle2
									{
										OFFSET 3.324875 0.000000 0.000000
										CHANNELS 3 Xrotation Yrotation Zrotation
										JOINT newVegas:LeftHandMiddle3
										{
											OFFSET 4.596550 0.000000 0.000000
											CHANNELS 3 Xrotation Yrotation Zrotation
											End Site
											{
												OFFSET 0.057701 4.578827 0.399218
											}
										}
									}
								}
								JOINT newVegas:LeftHandRing1
								{
									OFFSET 17.732719 0.121887 -4.201567
									CHANNELS 3 Xrotation Yrotation Zrotation
									JOINT newVegas:LeftHandRing2
									{
										OFFSET 2.733170 0.000000 0.000000
										CHANNELS 3 Xrotation Yrotation Zrotation
										JOINT newVegas:LeftHandRing3
										{
											OFFSET 3.178268 0.000000 0.000000
											CHANNELS 3 Xrotation Yrotation Zrotation
											End Site
											{
												OFFSET 0.119102 3.170624 0.185394
											}
										}
									}
								}
								JOINT newVegas:LeftHandPinky1
								{
									OFFSET 15.989624 -0.606689 -7.535461
									CHANNELS 3 Xrotation Yrotation Zrotation
									JOINT newVegas:LeftHandPinky2
									{
										OFFSET 2.538986 0.000000 0.000000
										CHANNELS 3 Xrotation Yrotation Zrotation
										JOINT newVegas:LeftHandPinky3
										{
											OFFSET 2.593102 0.000000 0.000000
											CHANNELS 3 Xrotation Yrotation Zrotation
											End Site
											{
												OFFSET -0.150902 2.584198 0.152708
											}
										}
									}
								}
							}
							JOINT newVegas:Left_Sleeve
							{
								OFFSET 0.267448 -0.649796 0.577675
								CHANNELS 3 Xrotation Yrotation Zrotation
								End Site
								{
									OFFSET 0.000000 15.991241 0.000000
								}
							}
							JOINT newVegas:Left_CapeC
							{
								OFFSET 15.715958 -8.608795 -6.935905
								CHANNELS 3 Xrotation Yrotation Zrotation
								JOINT newVegas:Left_CapeC1
								{
									OFFSET 0.000000 -8.688499 0.000000
									CHANNELS 3 Xrotation Yrotation Zrotation
									End Site
									{
										OFFSET 0.000000 8.688499 0.000000
									}
								}
							}
						}
						JOINT newVegas:Left_CapeB
						{
							OFFSET 26.118385 -8.608795 -7.079235
							CHANNELS 3 Xrotation Yrotation Zrotation
							JOINT newVegas:Left_CapeB1
							{
								OFFSET 0.000000 -8.688499 0.000000
								CHANNELS 3 Xrotation Yrotation Zrotation
								End Site
								{
									OFFSET 0.000000 8.688499 0.000000
								}
							}
						}
						JOINT newVegas:Left_CapeA
						{
							OFFSET 5.115639 -8.608795 -10.395809
							CHANNELS 3 Xrotation Yrotation Zrotation
							JOINT newVegas:Left_CapeA1
							{
								OFFSET 0.000000 -8.688499 0.000000
								CHANNELS 3 Xrotation Yrotation Zrotation
								End Site
								{
									OFFSET 0.000000 8.688499 0.000000
								}
							}
						}
					}
				}
				JOINT newVegas:RightShoulder
				{
					OFFSET -15.263000 10.923401 -0.547700
					CHANNELS 3 Xrotation Yrotation Zrotation
					JOINT newVegas:RightArm
					{
						OFFSET -25.438599 -2.830597 -13.032500
						CHANNELS 3 Xrotation Yrotation Zrotation
						JOINT newVegas:RightForeArm
						{
							OFFSET -29.960503 0.000000 0.000000
							CHANNELS 3 Xrotation Yrotation Zrotation
							JOINT newVegas:RightHand
							{
								OFFSET -27.849251 0.000000 0.000000
								CHANNELS 3 Xrotation Yrotation Zrotation
								JOINT newVegas:RightHandThumb1
								{
									OFFSET -4.487587 -3.305161 6.305391
									CHANNELS 3 Xrotation Yrotation Zrotation
									JOINT newVegas:RightHandThumb2
									{
										OFFSET -5.480453 -3.164139 3.164143
										CHANNELS 3 Xrotation Yrotation Zrotation
										JOINT newVegas:RightHandThumb3
										{
											OFFSET -5.159721 -2.978973 2.978967
											CHANNELS 3 Xrotation Yrotation Zrotation
											End Site
											{
												OFFSET -2.494507 5.926697 1.738678
											}
										}
									}
								}
								JOINT newVegas:RightHandIndex1
								{
									OFFSET -18.578728 -0.527832 5.208049
									CHANNELS 3 Xrotation Yrotation Zrotation
									JOINT newVegas:RightHandIndex2
									{
										OFFSET -3.192009 0.000000 0.000000
										CHANNELS 3 Xrotation Yrotation Zrotation
										JOINT newVegas:RightHandIndex3
										{
											OFFSET -3.835129 0.000000 0.000000
											CHANNELS 3 Xrotation Yrotation Zrotation
											End Site
											{
												OFFSET 0.034599 3.816971 0.371180
											}
										}
									}
								}
								JOINT newVegas:RightHandMiddle1
								{
									OFFSET -18.476105 0.000000 0.000000
									CHANNELS 3 Xrotation Yrotation Zrotation
									JOINT newVegas:RightHandMiddle2
									{
										OFFSET -3.324875 0.000000 0.000000
										CHANNELS 3 Xrotation Yrotation Zrotation
										JOINT newVegas:RightHandMiddle3
										{
											OFFSET -4.596550 0.000000 0.000000
											CHANNELS 3 Xrotation Yrotation Zrotation
											End Site
											{
												OFFSET -0.057701 4.578827 0.399218
											}
										}
									}
								}
								JOINT newVegas:RightHandRing1
								{
									OFFSET -17.732719 0.121887 -4.201567
									CHANNELS 3 Xrotation Yrotation Zrotation
									JOINT newVegas:RightHandRing2
									{
										OFFSET -2.733170 0.000000 0.000000
										CHANNELS 3 Xrotation Yrotation Zrotation
										JOINT newVegas:RightHandRing3
										{
											OFFSET -3.178268 0.000000 0.000000
											CHANNELS 3 Xrotation Yrotation Zrotation
											End Site
											{
												OFFSET -0.119102 3.170624 0.185394
											}
										}
									}
								}
								JOINT newVegas:RightHandPinky1
								{
									OFFSET -15.989624 -0.606689 -7.535461
									CHANNELS 3 Xrotation Yrotation Zrotation
									JOINT newVegas:RightHandPinky2
									{
										OFFSET -2.538986 0.000000 0.000000
										CHANNELS 3 Xrotation Yrotation Zrotation
										JOINT newVegas:RightHandPinky3
										{
											OFFSET -2.593102 0.000000 0.000000
											CHANNELS 3 Xrotation Yrotation Zrotation
											End Site
											{
												OFFSET 0.150902 2.584198 0.152708
											}
										}
									}
								}
							}
							JOINT newVegas:Right_CapeC
							{
								OFFSET -15.715958 -8.608795 -6.935905
								CHANNELS 3 Xrotation Yrotation Zrotation
								JOINT newVegas:Right_CapeC1
								{
									OFFSET 0.000000 -8.688499 0.000000
									CHANNELS 3 Xrotation Yrotation Zrotation
									End Site
									{
										OFFSET 0.000000 8.688499 0.000000
									}
								}
							}
							JOINT newVegas:Right_Sleeve
							{
								OFFSET -0.267448 -0.649994 0.577675
								CHANNELS 3 Xrotation Yrotation Zrotation
								End Site
								{
									OFFSET 0.000000 15.991302 0.000000
								}
							}
						}
						JOINT newVegas:Right_CapeA
						{
							OFFSET -5.115540 -8.608795 -10.395824
							CHANNELS 3 Xrotation Yrotation Zrotation
							JOINT newVegas:Right_CapeA1
							{
								OFFSET 0.000000 -8.688499 0.000000
								CHANNELS 3 Xrotation Yrotation Zrotation
								End Site
								{
									OFFSET 0.000000 8.688499 0.000000
								}
							}
						}
						JOINT newVegas:Right_CapeB
						{
							OFFSET -26.118187 -8.608795 -7.079266
							CHANNELS 3 Xrotation Yrotation Zrotation
							JOINT newVegas:Right_CapeB1
							{
								OFFSET 0.000000 -8.688499 0.000000
								CHANNELS 3 Xrotation Yrotation Zrotation
								End Site
								{
									OFFSET 0.000000 8.688499 0.000000
								}
							}
						}
					}
				}
				JOINT newVegas:Left_Collar
				{
					OFFSET 18.625099 8.655502 8.828100
					CHANNELS 3 Xrotation Yrotation Zrotation
					JOINT newVegas:Left_Collar1
					{
						OFFSET 14.783401 10.540405 -1.259500
						CHANNELS 3 Xrotation Yrotation Zrotation
						End Site
						{
							OFFSET 0.000000 18.199875 0.000000
						}
					}
				}
				JOINT newVegas:Collar_Back
				{
					OFFSET 0.000000 15.630707 -20.132601
					CHANNELS 3 Xrotation Yrotation Zrotation
					End Site
					{
						OFFSET 0.000000 22.523010 0.000000
					}
				}
				JOINT newVegas:Left_Peck
				{
					OFFSET 17.239599 -5.132599 25.482599
					CHANNELS 3 Xrotation Yrotation Zrotation
					End Site
					{
						OFFSET 0.000000 22.523010 0.000000
					}
				}
				JOINT newVegas:Right_Peck
				{
					OFFSET -17.239599 -5.132202 25.482599
					CHANNELS 3 Xrotation Yrotation Zrotation
					End Site
					{
						OFFSET 0.000000 22.523010 0.000000
					}
				}
				JOINT newVegas:Right_Collar
				{
					OFFSET -18.625099 8.655792 8.828100
					CHANNELS 3 Xrotation Yrotation Zrotation
					JOINT newVegas:Right_Collar1
					{
						OFFSET -14.783401 10.539993 -1.259500
						CHANNELS 3 Xrotation Yrotation Zrotation
						End Site
						{
							OFFSET 0.000000 18.199631 0.000000
						}
					}
				}
			}
		}
		JOINT newVegas:Belly
		{
			OFFSET 0.000000 -6.540398 9.014299
			CHANNELS 3 Xrotation Yrotation Zrotation
			End Site
			{
				OFFSET 0.000000 11.566666 0.000000
			}
		}
	}
	JOINT newVegas:ElvisFacialAnim_Joint
	{
		OFFSET 1.000000 -95.330101 -8.825800
		CHANNELS 3 Xrotation Yrotation Zrotation
		End Site
		{
			OFFSET 0.000000 35.315800 0.000000
		}
	}
}
MOTION
Frames: 4
Frame Time: 0.033333
2.720617 79.519043 4.280008 9.219276 -2.445462 14.137589 0.000001 0.000000 -0.000000 -70.399668 -8.014000 14.978446 112.636909 4.068212 -0.298511 6.761163 0.142462 -6.722702 -0.000001 0.000000 0.000001 -0.000001 -0.000001 -0.000001 -3.904722 -8.788152 17.262900 43.351603 -3.919564 2.510664 -32.881231 12.313205 -32.674218 -0.000001 -0.000000 -0.000000 -0.000002 0.000000 0.000000 10.883426 3.742277 -1.090663 0.739798 1.070324 0.141575 0.744013 1.057681 0.138128 -2.495186 -0.920562 0.073695 -2.495190 -0.920560 0.073689 0.000002 -0.000000 0.000001 -2.495173 -0.920547 0.073693 -2.495184 -0.920574 0.073699 0.000000 -0.000000 -0.000000 0.000002 -0.000000 0.000001 0.956356 2.220094 -17.097463 34.672701 9.360080 -61.743059 0.000006 -58.805511 0.000016 17.792189 -4.601737 9.051548 -9.674878 0.269253 1.575510 18.507164 20.928796 -3.452302 0.000002 -0.000006 -0.000003 -3.848486 2.877364 -61.548214 2.995002 5.108763 -60.739923 -0.000000 -0.000001 -0.000000 -2.842597 4.593812 -63.952209 4.026896 5.560369 -71.804850 -0.000000 -0.000001 0.000000 -4.013661 6.208963 -77.776867 4.605500 5.717381 -77.688081 0.000003 -0.000001 -0.000001 -0.927143 7.376751 -82.600790 4.957391 5.782628 -81.199529 -0.000002 -0.000005 0.000000 -0.000001 -0.000000 -0.000002 -0.000001 -0.000000 -0.000002 -0.000001 0.000000 -0.000002 -0.000000 -0.000002 -0.000001 -0.000000 -0.000003 -0.000001 -0.000000 -0.000002 -0.000001 -0.000001 -0.000003 -0.000000 0.567090 3.910613 15.033081 16.793074 14.995561 44.169515 0.000076 70.793149 -0.000093 -3.967599 11.997569 -15.529227 -6.752295 7.209102 -18.581238 15.970700 -27.521527 14.722095 -0.000003 -0.000005 -0.000001 -4.026033 10.918942 28.366800 3.771259 -4.572313 79.022277 -0.000003 -0.000000 0.000002 -4.887203 0.191124 47.726811 2.776641 -4.261371 66.161228 0.000003 -0.000001 0.000000 -3.942193 -1.273076 51.126520 3.609634 -4.538055 76.987351 0.000001 -0.000003 0.000004 -2.239465 -3.305852 56.827136 2.160898 -3.932880 57.559309 0.000001 0.000002 -0.000004 -0.000002 0.000001 0.000002 -0.000002 -0.000001 0.000002 -0.000002 0.000001 -0.000001 0.000001 -0.000001 -0.000001 0.000001 -0.000001 -0.000001 0.000001 -0.000001 -0.000001 0.000001 -0.000001 -0.000001 0.000002 0.000000 -0.000001 0.000002 0.000000 -0.000001 0.000002 0.000000 -0.000001 0.000002 0.000000 -0.000001 0.000002 0.000000 -0.000001 0.000002 0.000000 -0.000001 0.000002 0.000000 -0.000001 -0.000000 -0.000000 -0.000001 0.000001 0.000000 -0.000000 
3.347246 81.558403 18.320541 9.974082 -1.811076 16.373205 -0.000000 -0.000000 0.000000 -77.110213 -5.170564 8.777002 101.070954 7.690535 -0.088251 2.480079 1.906884 -8.120368 0.000000 0.000000 -0.000000 -0.000000 0.000001 0.000001 0.767688 -10.119665 12.995156 39.790770 -6.252201 0.067022 -19.667362 10.300073 -30.729024 -0.000001 -0.000000 -0.000000 -0.000000 -0.000001 -0.000003 9.131962 4.959717 -2.207843 0.567523 1.430752 -0.129035 0.567584 1.423537 -0.131351 -2.547926 -1.012866 -0.052176 -2.547915 -1.012869 -0.052187 -0.000000 -0.000000 -0.000001 -2.548066 -1.012848 -0.052179 -2.547634 -1.012905 -0.052165 -0.000000 0.000000 -0.000000 -0.000000 -0.000000 -0.000001 0.889000 1.379761 -16.914193 40.111471 12.148020 -60.528774 -0.000009 -63.354034 -0.000023 17.640727 -3.694335 7.359163 -9.674878 0.269251 1.575504 18.425211 20.605234 -3.448407 0.000002 -0.000000 -0.000005 -3.842216 2.814204 -61.225481 2.964619 5.091689 -60.398215 0.000000 -0.000002 -0.000000 -2.845026 4.548513 -63.624776 3.994178 5.549549 -71.466762 -0.000002 0.000001 0.000002 -4.021072 6.155398 -77.451654 4.571531 5.709909 -77.346920 -0.000003 -0.000000 -0.000002 -0.961129 7.372207 -82.265674 4.923736 5.777339 -80.865342 0.000000 -0.000005 -0.000001 0.000001 0.000000 0.000001 0.000001 0.000000 0.000001 0.000001 0.000001 0.000001 0.000000 -0.000003 -0.000002 0.000000 -0.000003 -0.000001 0.000000 -0.000003 -0.000002 0.000000 -0.000003 -0.000001 0.663912 2.164345 14.399196 16.002209 10.143785 41.131065 -0.000032 80.711642 0.000058 -4.381983 12.356710 -16.191503 -6.752293 7.209103 -18.581236 16.684120 -29.056304 14.665150 -0.000000 0.000003 -0.000004 -3.944938 10.755180 30.078985 3.910790 -4.597095 80.767738 -0.000000 0.000001 -0.000004 -4.937055 -0.113455 49.419444 2.910117 -4.317705 67.945424 0.000000 -0.000002 0.000005 -3.951357 -1.546229 52.830748 3.750421 -4.568209 78.760646 -0.000002 0.000004 -0.000000 -2.192277 -3.523097 58.548655 2.282592 -4.007441 59.316675 0.000002 0.000002 -0.000000 -0.000001 -0.000004 0.000000 -0.000002 0.000000 -0.000001 -0.000001 -0.000004 -0.000003 0.000001 0.000001 0.000000 0.000001 0.000002 0.000002 0.000001 0.000001 0.000000 0.000001 0.000002 0.000003 0.000001 -0.000000 0.000000 0.000001 -0.000000 0.000000 0.000001 -0.000000 0.000000 0.000001 -0.000000 0.000000 0.000001 -0.000000 0.000000 0.000001 -0.000000 0.000000 0.000001 -0.000000 0.000000 -0.000000 0.000001 0.000000 -0.000000 -0.000000 0.000000 
4.166855 83.790939 31.853699 10.831025 -1.014817 18.862527 -0.000000 0.000000 0.000001 -75.432404 -2.279815 3.612222 81.480639 9.990835 0.202477 -5.319901 4.768766 -8.566077 0.000001 -0.000001 0.000001 -0.000001 -0.000000 0.000003 3.441576 -10.372530 5.831665 35.445287 -4.205722 -2.377469 -1.594688 4.605815 -19.765437 0.000001 -0.000000 -0.000001 0.000001 0.000000 -0.000001 7.248573 6.275327 -3.521838 0.381829 1.828946 -0.419363 0.376763 1.827472 -0.420325 -2.609866 -1.110123 -0.191351 -2.609847 -1.110126 -0.191344 0.000001 -0.000000 -0.000002 -2.609802 -1.110136 -0.191350 -2.609945 -1.110120 -0.191352 -0.000000 0.000000 -0.000000 0.000001 -0.000000 -0.000001 0.824323 0.515109 -16.691980 46.607910 15.175678 -60.120158 -0.000017 -68.247810 -0.000031 17.601148 -2.743186 5.475091 -9.674884 0.269253 1.575505 18.215952 19.765176 -3.449421 0.000004 -0.000002 -0.000003 -3.820654 2.652507 -60.386925 2.886206 5.046517 -59.510728 0.000001 -0.000000 0.000000 -2.850264 4.431077 -62.774390 3.909476 5.520573 -70.588694 0.000000 0.000001 0.000001 -4.038987 6.016466 -76.607012 4.483529 5.689537 -76.460833 -0.000000 -0.000001 -0.000001 -1.047195 7.359821 -81.395282 4.836465 5.762719 -79.997361 -0.000000 -0.000001 -0.000005 -0.000000 0.000000 0.000002 -0.000000 0.000000 0.000002 -0.000001 0.000000 0.000002 -0.000000 -0.000001 -0.000002 -0.000000 -0.000002 -0.000001 -0.000000 -0.000001 -0.000002 -0.000002 -0.000003 -0.000002 0.727373 0.279894 13.687013 14.775369 5.080201 37.667056 0.000573 91.590713 -0.000431 -4.931167 12.831055 -16.990709 -6.752299 7.209103 -18.581236 18.404074 -32.498989 14.916076 0.000001 0.000001 -0.000000 -3.764005 10.454878 33.852904 4.219834 -4.636633 84.605744 -0.000002 -0.000002 0.000001 -5.013169 -0.785295 53.140794 3.209337 -4.426848 71.869122 -0.000000 -0.000000 -0.000002 -3.941552 -2.145093 56.578910 4.062825 -4.619158 82.659933 -0.000000 -0.000001 0.000000 -2.064797 -3.993641 62.336001 2.557861 -4.158081 63.181599 0.000001 0.000002 0.000000 -0.000001 -0.000001 -0.000000 -0.000000 -0.000000 0.000001 -0.000001 -0.000001 -0.000001 0.000004 0.000000 -0.000002 0.000004 0.000001 -0.000000 0.000004 0.000000 -0.000002 0.000004 0.000001 -0.000000 0.000000 0.000000 0.000000 0.000000 0.000000 0.000000 0.000000 0.000000 0.000000 0.000000 0.000000 0.000000 0.000000 0.000000 0.000000 0.000000 0.000000 0.000000 0.000000 0.000000 0.000000 -0.000000 -0.000000 -0.000001 -0.000000 0.000000 0.000001 
5.242188 85.178986 45.248421 11.404889 -0.299666 20.976641 0.000001 -0.000001 -0.000002 -65.879627 -0.880534 -0.121793 54.021701 9.998342 0.569178 -11.154126 7.373402 -7.426818 -0.000001 -0.000001 -0.000000 0.000000 0.000000 0.000001 12.342385 -10.193978 2.179061 22.814934 -0.645014 -4.678729 16.783399 1.131810 -12.329059 -0.000001 -0.000001 -0.000001 0.000000 -0.000001 0.000000 5.715875 7.301949 -4.641710 0.229394 2.125724 -0.678260 0.219401 2.129678 -0.678093 -2.657755 -1.193393 -0.311630 -2.657742 -1.193392 -0.311611 -0.000000 -0.000000 -0.000001 -2.657753 -1.193405 -0.311625 -2.657820 -1.193362 -0.311627 0.000001 0.000000 0.000001 -0.000000 -0.000000 -0.000001 0.774640 -0.293596 -16.575428 51.928579 17.726665 -60.090850 0.000001 -72.292430 0.000015 17.548124 -1.963412 3.987989 -9.674880 0.269252 1.575505 17.931226 18.592789 -3.477199 0.000003 -0.000003 -0.000001 -3.786119 2.427789 -59.215220 2.777839 4.981366 -58.270830 0.000000 0.000000 0.000000 -2.854995 4.267509 -61.586293 3.791901 5.477912 -69.361841 -0.000000 0.000001 0.000002 -4.060783 5.822801 -75.427049 4.361116 5.658802 -75.222793 0.000000 -0.000000 -0.000002 -1.165759 7.340660 -80.179119 4.714929 5.740059 -78.784572 0.000000 -0.000003 -0.000006 0.000000 0.000000 -0.000001 0.000000 0.000000 -0.000001 -0.000000 -0.000000 -0.000001 0.000002 0.000002 0.000001 0.000002 0.000001 0.000001 0.000002 0.000002 0.000001 0.000002 0.000002 0.000001 0.747104 -1.361488 13.069025 13.809582 0.889542 34.815260 0.001286 100.467411 -0.001292 -5.309507 13.137659 -17.539436 -6.752293 7.209102 -18.581234 20.410846 -36.061859 15.753174 -0.000001 -0.000002 -0.000001 -3.584196 10.231565 37.709423 4.536576 -4.655618 88.514662 0.000001 0.000001 0.000002 -5.043477 -1.470013 56.931116 3.521099 -4.516757 75.866039 -0.000000 0.000000 -0.000002 -3.889559 -2.750237 60.398263 4.383819 -4.649147 86.631367 -0.000001 0.000001 0.000000 -1.902093 -4.461007 66.196636 2.848036 -4.292110 67.118971 -0.000001 -0.000002 -0.000000 -0.000001 0.000001 -0.000000 -0.000001 -0.000000 -0.000001 -0.000001 0.000001 0.000000 -0.000000 0.000000 0.000002 -0.000000 0.000001 0.000001 -0.000000 0.000000 0.000002 -0.000000 0.000001 0.000003 0.000000 0.000001 0.000002 0.000000 0.000001 0.000002 0.000000 0.000001 0.000002 0.000000 0.000001 0.000002 0.000000 0.000001 0.000002 0.000000 0.000001 0.000002 0.000000 0.000001 0.000002 -0.000001 -0.000001 -0.000001 0.000001 -0.000001 -0.000002 
